<?xml version="1.0" encoding="utf-8"?>
<!-- Generator: Adobe Illustrator 24.0.3, SVG Export Plug-In . SVG Version: 6.00 Build 0)  -->
<svg version="1.1" id="Calque_1" xmlns="http://www.w3.org/2000/svg" xmlns:xlink="http://www.w3.org/1999/xlink" x="0px" y="0px"
	 viewBox="0 0 800 800" style="enable-background:new 0 0 800 800;" xml:space="preserve">
<style type="text/css">
	.st0{fill:#ED634C;}
</style>
<title>Fichier 1</title>
<g id="Calque_2_1_">
	<g id="Calque_1-2">
		<path class="st0" d="M572.7,427c-13,83.3-85.5,147.3-172.7,147.3s-159.7-64-172.7-147.3H39c13.9,186.7,170.1,334,361,334
			s347.1-147.2,361-334H572.7z M400,225.7c87.2,0,159.7,64,172.7,147.3H761C747.1,186.3,590.9,39,400,39S52.9,186.3,39,373h188.3
			C240.3,289.7,312.8,225.7,400,225.7z M520.3,400c0-66.1-54-120-120.3-120s-120.3,53.8-120.3,120s54,120,120.3,120
			S520.3,466.1,520.3,400z"/>
	</g>
</g>
</svg>
