<?xml version="1.0" encoding="utf-8"?>
<!-- Generator: Adobe Illustrator 24.0.3, SVG Export Plug-In . SVG Version: 6.00 Build 0)  -->
<svg version="1.1" id="Calque_1" xmlns="http://www.w3.org/2000/svg" xmlns:xlink="http://www.w3.org/1999/xlink" x="0px" y="0px"
	 viewBox="0 0 800 800" style="enable-background:new 0 0 800 800;" xml:space="preserve">
<title>Fichier 1</title>
<g id="Calque_2_1_">
	<g id="Calque_1-2">
		<path d="M535.4,421.2c-10.2,65.3-67,115.5-135.4,115.5s-125.2-50.2-135.4-115.5H117C127.9,567.5,250.3,683,400,683
			s272.1-115.4,283-261.8H535.4z M400,263.4c68.4,0,125.2,50.2,135.4,115.5H683C672.1,232.5,549.7,117,400,117
			S127.9,232.5,117,378.8h147.6C274.8,313.5,331.6,263.4,400,263.4z M494.3,400c0-51.8-42.3-94.1-94.3-94.1s-94.3,42.2-94.3,94.1
			s42.3,94.1,94.3,94.1S494.3,451.8,494.3,400z"/>
	</g>
</g>
</svg>
